<?xml version="1.0" encoding="UTF-8" standalone="no"?><!DOCTYPE svg PUBLIC "-//W3C//DTD SVG 1.1//EN" "http://www.w3.org/Graphics/SVG/1.1/DTD/svg11.dtd"><svg width="100%" height="100%" viewBox="0 0 1042 362" version="1.1" xmlns="http://www.w3.org/2000/svg" xmlns:xlink="http://www.w3.org/1999/xlink" xml:space="preserve" xmlns:serif="http://www.serif.com/" style="fill-rule:evenodd;clip-rule:evenodd;stroke-linecap:round;stroke-linejoin:round;stroke-miterlimit:1.5;"><g><g><path d="M1,91l1040,0" style="fill:none;stroke:#000;stroke-width:1px;"/><path d="M1,181l1040,0" style="fill:none;stroke:#000;stroke-width:1px;"/><path d="M1,271l1040,0" style="fill:none;stroke:#000;stroke-width:1px;"/><path d="M201,33.367l0,327.633l0,-360" style="fill:none;stroke:#000;stroke-width:1px;"/><path d="M643,1l0,360" style="fill:none;stroke:#000;stroke-width:1px;"/></g><g><text x="5.72px" y="144.568px" style="font-family:'HelveticaNeue-Bold', 'Helvetica Neue';font-weight:700;font-size:24px;fill:#404040;">Fast compilation</text><text x="38.564px" y="234.568px" style="font-family:'HelveticaNeue-Bold', 'Helvetica Neue';font-weight:700;font-size:24px;fill:#404040;">Debugging</text><text x="40.124px" y="324.568px" style="font-family:'HelveticaNeue-Bold', 'Helvetica Neue';font-weight:700;font-size:24px;fill:#404040;">Assertions</text><text x="310.7px" y="54.568px" style="font-family:'HelveticaNeue-Bold', 'Helvetica Neue';font-weight:700;font-size:24px;fill:#404040;">pr<tspan x="334.268px 348.044px " y="54.568px 54.568px ">e-</tspan>compiled LL<tspan x="496.412px 511.532px " y="54.568px 54.568px ">VM</tspan></text><text x="760.184px" y="54.568px" style="font-family:'HelveticaNeue-Bold', 'Helvetica Neue';font-weight:700;font-size:24px;fill:#404040;">LL<tspan x="786.44px 801.56px " y="54.568px 54.568px ">VM</tspan> Sour<tspan x="883.376px 897.152px " y="54.568px 54.568px ">ce</tspan>s</text></g><g><path d="M398,140l12,14l36,-32" style="fill:none;stroke:#31a114;stroke-width:7px;"/><path d="M819,323l12,14l36,-32" style="fill:none;stroke:#31a114;stroke-width:7px;"/><path d="M819,230l12,14l36,-32" style="fill:none;stroke:#31a114;stroke-width:7px;"/><path d="M436,242l-16,-18l18,-18l-18,18l-18,18l18,-18l-18,-18l34,36Z" style="fill:none;stroke:#a1141e;stroke-width:7px;"/><path d="M859,154l-16,-18l18,-18l-18,18l-18,18l18,-18l-18,-18l34,36Z" style="fill:none;stroke:#a1141e;stroke-width:7px;"/><path d="M436,341l-16,-18l18,-18l-18,18l-18,18l18,-18l-18,-18l34,36Z" style="fill:none;stroke:#a1141e;stroke-width:7px;"/></g></g></svg>